<svg width="18" height="20" viewBox="0 0 18 20" fill="none" xmlns="http://www.w3.org/2000/svg">
<path d="M1 1H2.71429L5.57143 14.5M5.57143 14.5H14.7143M5.57143 14.5C4.96522 14.5 4.38384 14.7371 3.95518 15.159C3.52653 15.581 3.28571 16.1533 3.28571 16.75C3.28571 17.3467 3.52653 17.919 3.95518 18.341C4.38384 18.7629 4.96522 19 5.57143 19C6.17764 19 6.75902 18.7629 7.18767 18.341C7.61633 17.919 7.85714 17.3467 7.85714 16.75C7.85714 16.1533 7.61633 15.581 7.18767 15.159C6.75902 14.7371 6.17764 14.5 5.57143 14.5ZM14.7143 14.5C14.1081 14.5 13.5267 14.7371 13.098 15.159C12.6694 15.581 12.4286 16.1533 12.4286 16.75C12.4286 17.3467 12.6694 17.919 13.098 18.341C13.5267 18.7629 14.1081 19 14.7143 19C15.3205 19 15.9019 18.7629 16.3305 18.341C16.7592 17.919 17 17.3467 17 16.75C17 16.1533 16.7592 15.581 16.3305 15.159C15.9019 14.7371 15.3205 14.5 14.7143 14.5ZM5 11.125H15.5714L17 4.375H3.64229" stroke="#092C4C" stroke-width="1.5" stroke-linecap="round" stroke-linejoin="round"/>
</svg>
