<svg width="28" height="27" viewBox="0 0 28 27" fill="none" xmlns="http://www.w3.org/2000/svg">
<path d="M1.5 1H4.17857L8.64286 19.75M8.64286 19.75H22.9286M8.64286 19.75C7.69566 19.75 6.78725 20.0792 6.11748 20.6653C5.4477 21.2513 5.07143 22.0462 5.07143 22.875C5.07143 23.7038 5.4477 24.4987 6.11748 25.0847C6.78725 25.6708 7.69566 26 8.64286 26C9.59006 26 10.4985 25.6708 11.1682 25.0847C11.838 24.4987 12.2143 23.7038 12.2143 22.875C12.2143 22.0462 11.838 21.2513 11.1682 20.6653C10.4985 20.0792 9.59006 19.75 8.64286 19.75ZM22.9286 19.75C21.9814 19.75 21.073 20.0792 20.4032 20.6653C19.7334 21.2513 19.3571 22.0462 19.3571 22.875C19.3571 23.7038 19.7334 24.4987 20.4032 25.0847C21.073 25.6708 21.9814 26 22.9286 26C23.8758 26 24.7842 25.6708 25.454 25.0847C26.1237 24.4987 26.5 23.7038 26.5 22.875C26.5 22.0462 26.1237 21.2513 25.454 20.6653C24.7842 20.0792 23.8758 19.75 22.9286 19.75ZM7.75 15.0625H24.2679L26.5 5.6875H5.62857" stroke="white" stroke-width="2" stroke-linecap="round" stroke-linejoin="round"/>
<path d="M1.5 1H4.17857L8.64286 19.75M8.64286 19.75H22.9286M8.64286 19.75C7.69566 19.75 6.78725 20.0792 6.11748 20.6653C5.4477 21.2513 5.07143 22.0462 5.07143 22.875C5.07143 23.7038 5.4477 24.4987 6.11748 25.0847C6.78725 25.6708 7.69566 26 8.64286 26C9.59006 26 10.4985 25.6708 11.1682 25.0847C11.838 24.4987 12.2143 23.7038 12.2143 22.875C12.2143 22.0462 11.838 21.2513 11.1682 20.6653C10.4985 20.0792 9.59006 19.75 8.64286 19.75ZM22.9286 19.75C21.9814 19.75 21.073 20.0792 20.4032 20.6653C19.7334 21.2513 19.3571 22.0462 19.3571 22.875C19.3571 23.7038 19.7334 24.4987 20.4032 25.0847C21.073 25.6708 21.9814 26 22.9286 26C23.8758 26 24.7842 25.6708 25.454 25.0847C26.1237 24.4987 26.5 23.7038 26.5 22.875C26.5 22.0462 26.1237 21.2513 25.454 20.6653C24.7842 20.0792 23.8758 19.75 22.9286 19.75ZM7.75 15.0625H24.2679L26.5 5.6875H5.62857" stroke="white" stroke-width="2" stroke-linecap="round" stroke-linejoin="round"/>
</svg>
