<svg width="26" height="26" viewBox="0 0 26 26" fill="none" xmlns="http://www.w3.org/2000/svg">
<path d="M2.5 3V18V19.4062V20.5948L3.34965 19.7637L4.6414 18.5H23H23.5V18V3V2.5H23H3H2.5V3ZM25 2.99939V3V18C25 18.554 24.8087 19.016 24.4124 19.413C24.0165 19.8095 23.5551 20.0007 23.0006 20H23H5.5H5.29289L5.14645 20.1464L1 24.2929V3C1 2.44631 1.19145 1.98498 1.58825 1.58885C1.98546 1.19232 2.44726 1.00074 3.00033 1H23C23.5537 1 24.0156 1.19148 24.4127 1.58855C24.8097 1.98561 25.0007 2.44691 25 2.99939ZM25.5 3V18C25.5 18.6875 25.2554 19.2762 24.7662 19.7662C24.2771 20.2562 23.6883 20.5008 23 20.5L25.5 3ZM15 13.5V15H6V13.5H15ZM20 11.25H6V9.75H20V11.25ZM20 7.5H6V6H20V7.5Z" fill="#092C4C" stroke="#092C4C"/>
</svg>
