<svg width="18" height="18" viewBox="0 0 18 18" fill="none" xmlns="http://www.w3.org/2000/svg">
<path d="M3.6 10.8H10.8V9H3.6V10.8ZM3.6 8.1H14.4V6.3H3.6V8.1ZM3.6 5.4H14.4V3.6H3.6V5.4ZM0 18V1.8C0 1.305 0.1764 0.8814 0.5292 0.5292C0.882 0.177 1.3056 0.0006 1.8 0H16.2C16.695 0 17.1189 0.1764 17.4717 0.5292C17.8245 0.882 18.0006 1.3056 18 1.8V12.6C18 13.095 17.8239 13.5189 17.4717 13.8717C17.1195 14.2245 16.6956 14.4006 16.2 14.4H3.6L0 18ZM2.835 12.6H16.2V1.8H1.8V13.6125L2.835 12.6Z" fill="#092C4C"/>
</svg>
