<svg width="18" height="19" viewBox="0 0 18 19" fill="none" xmlns="http://www.w3.org/2000/svg">
<path d="M11 18.5C10.7348 18.5 10.4804 18.3946 10.2929 18.2071C10.1054 18.0196 10 17.7652 10 17.5V9.5C10 9.23478 10.1054 8.98043 10.2929 8.79289C10.4804 8.60536 10.7348 8.5 11 8.5H17C17.2652 8.5 17.5196 8.60536 17.7071 8.79289C17.8946 8.98043 18 9.23478 18 9.5V17.5C18 17.7652 17.8946 18.0196 17.7071 18.2071C17.5196 18.3946 17.2652 18.5 17 18.5H11ZM1 10.5C0.734784 10.5 0.48043 10.3946 0.292893 10.2071C0.105357 10.0196 0 9.76522 0 9.5V1.5C0 1.23478 0.105357 0.98043 0.292893 0.792893C0.48043 0.605357 0.734784 0.5 1 0.5H7C7.26522 0.5 7.51957 0.605357 7.70711 0.792893C7.89464 0.98043 8 1.23478 8 1.5V9.5C8 9.76522 7.89464 10.0196 7.70711 10.2071C7.51957 10.3946 7.26522 10.5 7 10.5H1ZM6 8.5V2.5H2V8.5H6ZM1 18.5C0.734784 18.5 0.48043 18.3946 0.292893 18.2071C0.105357 18.0196 0 17.7652 0 17.5V13.5C0 13.2348 0.105357 12.9804 0.292893 12.7929C0.48043 12.6054 0.734784 12.5 1 12.5H7C7.26522 12.5 7.51957 12.6054 7.70711 12.7929C7.89464 12.9804 8 13.2348 8 13.5V17.5C8 17.7652 7.89464 18.0196 7.70711 18.2071C7.51957 18.3946 7.26522 18.5 7 18.5H1ZM2 16.5H6V14.5H2V16.5ZM12 16.5H16V10.5H12V16.5ZM10 1.5C10 1.23478 10.1054 0.98043 10.2929 0.792893C10.4804 0.605357 10.7348 0.5 11 0.5H17C17.2652 0.5 17.5196 0.605357 17.7071 0.792893C17.8946 0.98043 18 1.23478 18 1.5V5.5C18 5.76522 17.8946 6.01957 17.7071 6.20711C17.5196 6.39464 17.2652 6.5 17 6.5H11C10.7348 6.5 10.4804 6.39464 10.2929 6.20711C10.1054 6.01957 10 5.76522 10 5.5V1.5ZM12 2.5V4.5H16V2.5H12Z" fill="#092C4C"/>
</svg>
