<svg width="12" height="14" viewBox="0 0 12 14" fill="none" xmlns="http://www.w3.org/2000/svg">
<path d="M4.8 2.94961H7.2C7.2 2.63135 7.07357 2.32612 6.84853 2.10108C6.62348 1.87604 6.31826 1.74961 6 1.74961C5.68174 1.74961 5.37652 1.87604 5.15147 2.10108C4.92643 2.32612 4.8 2.63135 4.8 2.94961ZM3.9 2.94961C3.9 2.67383 3.95432 2.40076 4.05985 2.14597C4.16539 1.89119 4.32007 1.65969 4.51508 1.46469C4.71008 1.26968 4.94158 1.115 5.19637 1.00946C5.45115 0.903927 5.72422 0.849609 6 0.849609C6.27578 0.849609 6.54885 0.903927 6.80364 1.00946C7.05842 1.115 7.28992 1.26968 7.48492 1.46469C7.67993 1.65969 7.83461 1.89119 7.94015 2.14597C8.04568 2.40076 8.1 2.67383 8.1 2.94961H11.55C11.6693 2.94961 11.7838 2.99702 11.8682 3.08141C11.9526 3.1658 12 3.28026 12 3.39961C12 3.51896 11.9526 3.63342 11.8682 3.71781C11.7838 3.8022 11.6693 3.84961 11.55 3.84961H10.758L10.056 11.1162C10.0022 11.673 9.74283 12.1898 9.32861 12.5657C8.91439 12.9417 8.37499 13.1498 7.8156 13.1496H4.1844C3.62512 13.1497 3.08586 12.9414 2.67177 12.5655C2.25768 12.1896 1.99844 11.6729 1.9446 11.1162L1.242 3.84961H0.45C0.330653 3.84961 0.216193 3.8022 0.131802 3.71781C0.0474105 3.63342 0 3.51896 0 3.39961C0 3.28026 0.0474105 3.1658 0.131802 3.08141C0.216193 2.99702 0.330653 2.94961 0.45 2.94961H3.9ZM5.1 5.79961C5.1 5.68026 5.05259 5.5658 4.9682 5.48141C4.88381 5.39702 4.76935 5.34961 4.65 5.34961C4.53065 5.34961 4.41619 5.39702 4.3318 5.48141C4.24741 5.5658 4.2 5.68026 4.2 5.79961V10.2996C4.2 10.419 4.24741 10.5334 4.3318 10.6178C4.41619 10.7022 4.53065 10.7496 4.65 10.7496C4.76935 10.7496 4.88381 10.7022 4.9682 10.6178C5.05259 10.5334 5.1 10.419 5.1 10.2996V5.79961ZM7.35 5.34961C7.46935 5.34961 7.58381 5.39702 7.6682 5.48141C7.75259 5.5658 7.8 5.68026 7.8 5.79961V10.2996C7.8 10.419 7.75259 10.5334 7.6682 10.6178C7.58381 10.7022 7.46935 10.7496 7.35 10.7496C7.23065 10.7496 7.11619 10.7022 7.0318 10.6178C6.94741 10.5334 6.9 10.419 6.9 10.2996V5.79961C6.9 5.68026 6.94741 5.5658 7.0318 5.48141C7.11619 5.39702 7.23065 5.34961 7.35 5.34961ZM2.8404 11.0298C2.87276 11.3638 3.02835 11.6738 3.27682 11.8993C3.5253 12.1248 3.84885 12.2497 4.1844 12.2496H7.8156C8.15115 12.2497 8.4747 12.1248 8.72318 11.8993C8.97165 11.6738 9.12724 11.3638 9.1596 11.0298L9.8544 3.84961H2.1456L2.8404 11.0298Z" fill="white"/>
</svg>
