<svg width="14" height="17" viewBox="0 0 14 17" fill="none" xmlns="http://www.w3.org/2000/svg">
<path d="M12.7588 2.75C12.9577 2.75 13.1485 2.82902 13.2891 2.96967C13.4298 3.11032 13.5088 3.30109 13.5088 3.5C13.5088 3.69891 13.4298 3.88968 13.2891 4.03033C13.1485 4.17098 12.9577 4.25 12.7588 4.25H12.0088L12.0065 4.30325L11.3068 14.1065C11.2799 14.4849 11.1105 14.8391 10.8329 15.0977C10.5552 15.3563 10.1899 15.5 9.81054 15.5H3.70629C3.32689 15.5 2.96159 15.3563 2.68395 15.0977C2.40632 14.8391 2.23698 14.4849 2.21004 14.1065L1.51029 4.304L1.50879 4.25H0.758789C0.559877 4.25 0.369111 4.17098 0.228459 4.03033C0.0878067 3.88968 0.00878906 3.69891 0.00878906 3.5C0.00878906 3.30109 0.0878067 3.11032 0.228459 2.96967C0.369111 2.82902 0.559877 2.75 0.758789 2.75H12.7588ZM10.5065 4.25H3.01104L3.70704 14H9.81054L10.5065 4.25ZM8.25879 0.5C8.4577 0.5 8.64847 0.579018 8.78912 0.71967C8.92977 0.860322 9.00879 1.05109 9.00879 1.25C9.00879 1.44891 8.92977 1.63968 8.78912 1.78033C8.64847 1.92098 8.4577 2 8.25879 2H5.25879C5.05988 2 4.86911 1.92098 4.72846 1.78033C4.58781 1.63968 4.50879 1.44891 4.50879 1.25C4.50879 1.05109 4.58781 0.860322 4.72846 0.71967C4.86911 0.579018 5.05988 0.5 5.25879 0.5H8.25879Z" fill="black"/>
</svg>
