<svg width="15" height="16" viewBox="0 0 15 16" fill="none" xmlns="http://www.w3.org/2000/svg">
<path d="M5.85366 3.06098H8.78049C8.78049 2.67285 8.62631 2.30063 8.35186 2.02619C8.07742 1.75174 7.70519 1.59756 7.31707 1.59756C6.92895 1.59756 6.55673 1.75174 6.28228 2.02619C6.00784 2.30063 5.85366 2.67285 5.85366 3.06098ZM4.7561 3.06098C4.7561 2.72466 4.82234 2.39164 4.95104 2.08093C5.07974 1.77022 5.26838 1.4879 5.50619 1.25009C5.744 1.01228 6.02632 0.823644 6.33703 0.694943C6.64774 0.566242 6.98076 0.5 7.31707 0.5C7.65339 0.5 7.9864 0.566242 8.29712 0.694943C8.60783 0.823644 8.89015 1.01228 9.12796 1.25009C9.36576 1.4879 9.55441 1.77022 9.68311 2.08093C9.81181 2.39164 9.87805 2.72466 9.87805 3.06098H14.0854C14.2309 3.06098 14.3705 3.11879 14.4734 3.22171C14.5763 3.32463 14.6341 3.46421 14.6341 3.60976C14.6341 3.7553 14.5763 3.89489 14.4734 3.9978C14.3705 4.10072 14.2309 4.15854 14.0854 4.15854H13.1195L12.2634 13.0202C12.1977 13.6993 11.8815 14.3295 11.3764 14.7879C10.8712 15.2464 10.2134 15.5003 9.53122 15.5H5.10293C4.42088 15.5001 3.76324 15.2461 3.25826 14.7877C2.75327 14.3292 2.43712 13.6991 2.37146 13.0202L1.51463 4.15854H0.548781C0.403235 4.15854 0.26365 4.10072 0.160734 3.9978C0.0578177 3.89489 0 3.7553 0 3.60976C0 3.46421 0.0578177 3.32463 0.160734 3.22171C0.26365 3.11879 0.403235 3.06098 0.548781 3.06098H4.7561ZM6.21951 6.53659C6.21951 6.39104 6.16169 6.25146 6.05878 6.14854C5.95586 6.04562 5.81628 5.9878 5.67073 5.9878C5.52519 5.9878 5.3856 6.04562 5.28269 6.14854C5.17977 6.25146 5.12195 6.39104 5.12195 6.53659V12.0244C5.12195 12.1699 5.17977 12.3095 5.28269 12.4124C5.3856 12.5154 5.52519 12.5732 5.67073 12.5732C5.81628 12.5732 5.95586 12.5154 6.05878 12.4124C6.16169 12.3095 6.21951 12.1699 6.21951 12.0244V6.53659ZM8.96342 5.9878C9.10896 5.9878 9.24854 6.04562 9.35146 6.14854C9.45438 6.25146 9.5122 6.39104 9.5122 6.53659V12.0244C9.5122 12.1699 9.45438 12.3095 9.35146 12.4124C9.24854 12.5154 9.10896 12.5732 8.96342 12.5732C8.81787 12.5732 8.67829 12.5154 8.57537 12.4124C8.47245 12.3095 8.41463 12.1699 8.41463 12.0244V6.53659C8.41463 6.39104 8.47245 6.25146 8.57537 6.14854C8.67829 6.04562 8.81787 5.9878 8.96342 5.9878ZM3.4639 12.9149C3.50337 13.3222 3.69311 13.7002 3.99612 13.9752C4.29914 14.2502 4.69372 14.4025 5.10293 14.4024H9.53122C9.94043 14.4025 10.335 14.2502 10.638 13.9752C10.941 13.7002 11.1308 13.3222 11.1702 12.9149L12.0176 4.15854H2.61659L3.4639 12.9149Z" fill="#092C4C"/>
</svg>
