<svg width="17" height="18" viewBox="0 0 17 18" fill="none" xmlns="http://www.w3.org/2000/svg">
<path d="M3.64704 5.0293H2.76469C2.29667 5.0293 1.84781 5.21522 1.51687 5.54616C1.18592 5.87711 1 6.32597 1 6.79399V14.7351C1 15.2031 1.18592 15.652 1.51687 15.9829C1.84781 16.3139 2.29667 16.4998 2.76469 16.4998H10.7058C11.1738 16.4998 11.6227 16.3139 11.9536 15.9829C12.2846 15.652 12.4705 15.2031 12.4705 14.7351V13.8528" stroke="#092C4C" stroke-width="1.5" stroke-linecap="round" stroke-linejoin="round"/>
<path d="M11.5866 3.26479L14.2336 5.91183M15.4557 4.66331C15.8032 4.3158 15.9984 3.84448 15.9984 3.35302C15.9984 2.86157 15.8032 2.39025 15.4557 2.04274C15.1082 1.69523 14.6368 1.5 14.1454 1.5C13.6539 1.5 13.1826 1.69523 12.8351 2.04274L5.41016 9.44122V12.0883H8.0572L15.4557 4.66331Z" stroke="#092C4C" stroke-width="1.5" stroke-linecap="round" stroke-linejoin="round"/>
</svg>
