<svg width="13" height="16" viewBox="0 0 13 16" fill="none" xmlns="http://www.w3.org/2000/svg">
<path fill-rule="evenodd" clip-rule="evenodd" d="M6.59151 0.5C6.91438 0.500079 7.22693 0.613756 7.47441 0.821118L7.5638 0.902944L10.5989 3.93809C10.8273 4.1664 10.9679 4.46775 10.9964 4.78936L11.0019 4.91038V7.37618H9.62666V6.00095H6.53237C6.27597 6.00094 6.02877 5.90542 5.83897 5.73304C5.64917 5.56065 5.53038 5.32375 5.50576 5.06854L5.50095 4.96952V1.87524H1.37524V12.8771H5.50095V14.2524H1.37524C1.02828 14.2525 0.694105 14.1214 0.439699 13.8855C0.185293 13.6496 0.0294599 13.3263 0.00343824 12.9803L6.89461e-08 12.8771V1.87524C-0.00010973 1.52828 0.130927 1.1941 0.366842 0.939699C0.602758 0.685293 0.926115 0.52946 1.27209 0.503438L1.37524 0.5H6.59151ZM10.1128 9.07116L12.0574 11.0157C12.1863 11.1447 12.2587 11.3196 12.2587 11.5019C12.2587 11.6842 12.1863 11.8591 12.0574 11.988L10.1128 13.9326C10.0494 13.9983 9.9735 14.0507 9.88961 14.0867C9.80571 14.1228 9.71548 14.1417 9.62418 14.1425C9.53288 14.1433 9.44234 14.1259 9.35783 14.0913C9.27332 14.0568 9.19655 14.0057 9.13199 13.9411C9.06743 13.8766 9.01637 13.7998 8.98179 13.7153C8.94722 13.6308 8.92982 13.5403 8.93061 13.449C8.93141 13.3577 8.95038 13.2674 8.98641 13.1835C9.02245 13.0996 9.07484 13.0238 9.14051 12.9603L9.91133 12.1895H6.87618C6.69382 12.1895 6.51892 12.1171 6.38996 11.9881C6.26101 11.8592 6.18857 11.6843 6.18857 11.5019C6.18857 11.3195 6.26101 11.1446 6.38996 11.0157C6.51892 10.8867 6.69382 10.8143 6.87618 10.8143H9.91133L9.14051 10.0435C9.01149 9.91452 8.93896 9.73961 8.9389 9.55721C8.93884 9.3748 9.01123 9.19985 9.14017 9.07082C9.2691 8.9418 9.44401 8.86927 9.62641 8.86921C9.80882 8.86914 9.98378 8.94154 10.1128 9.07048V9.07116ZM6.87618 2.15991V4.62571H9.34198L6.87618 2.15991Z" fill="black"/>
</svg>
