<svg width="20" height="20" viewBox="0 0 20 20" fill="none" xmlns="http://www.w3.org/2000/svg">
<path d="M10 19C14.9706 19 19 14.9706 19 10C19 5.02944 14.9706 1 10 1C5.02944 1 1 5.02944 1 10C1 14.9706 5.02944 19 10 19Z" stroke="#092C4C" stroke-width="2" stroke-linecap="round" stroke-linejoin="round"/>
<path d="M7.38086 7.30012C7.59245 6.69862 8.0101 6.19142 8.55982 5.86834C9.10954 5.54527 9.75587 5.42717 10.3843 5.53496C11.0128 5.64276 11.5828 5.96949 11.9934 6.4573C12.4041 6.9451 12.6288 7.56249 12.6279 8.20012C12.6279 10.0001 9.92786 10.9001 9.92786 10.9001" stroke="#092C4C" stroke-width="2" stroke-linecap="round" stroke-linejoin="round"/>
<path d="M10 14.5H10.009" stroke="#092C4C" stroke-width="2" stroke-linecap="round" stroke-linejoin="round"/>
</svg>
