<svg width="18" height="26" viewBox="0 0 18 26" fill="none" xmlns="http://www.w3.org/2000/svg">
<path d="M1 16.8333V9.16667C1 7.13334 1.80774 5.18329 3.24551 3.74551C4.68329 2.30774 6.63334 1.5 8.66667 1.5C10.7 1.5 12.65 2.30774 14.0878 3.74551C15.5256 5.18329 16.3333 7.13334 16.3333 9.16667V19.3889C16.3333 20.7444 15.7948 22.0445 14.8363 23.003C13.8778 23.9615 12.5778 24.5 11.2222 24.5C9.86667 24.5 8.56664 23.9615 7.60812 23.003C6.6496 22.0445 6.11111 20.7444 6.11111 19.3889V9.16667C6.11111 8.48889 6.38036 7.83888 6.85962 7.35962C7.33888 6.88036 7.98889 6.61111 8.66667 6.61111C9.34444 6.61111 9.99446 6.88036 10.4737 7.35962C10.953 7.83888 11.2222 8.48889 11.2222 9.16667V19.3889" stroke="black" stroke-width="2" stroke-linecap="round" stroke-linejoin="round"/>
</svg>
