<svg width="18" height="18" viewBox="0 0 18 18" fill="none" xmlns="http://www.w3.org/2000/svg">
<path d="M8.99922 10.8002C9.47661 10.8002 9.93445 10.6106 10.272 10.273C10.6096 9.93542 10.7992 9.47758 10.7992 9.0002C10.7992 8.52281 10.6096 8.06497 10.272 7.7274C9.93445 7.38984 9.47661 7.2002 8.99922 7.2002C8.52183 7.2002 8.06399 7.38984 7.72643 7.7274C7.38886 8.06497 7.19922 8.52281 7.19922 9.0002C7.19922 9.47758 7.38886 9.93542 7.72643 10.273C8.06399 10.6106 8.52183 10.8002 8.99922 10.8002Z" fill="#092C4C"/>
<path fill-rule="evenodd" clip-rule="evenodd" d="M0.414062 9.0002C1.56066 5.3489 4.97166 2.7002 9.00186 2.7002C13.0321 2.7002 16.4431 5.3489 17.5897 9.0002C16.4431 12.6515 13.0321 15.3002 9.00186 15.3002C4.97166 15.3002 1.56066 12.6515 0.414062 9.0002ZM12.6019 9.0002C12.6019 9.95498 12.2226 10.8706 11.5474 11.5458C10.8723 12.2209 9.95664 12.6002 9.00186 12.6002C8.04708 12.6002 7.13141 12.2209 6.45628 11.5458C5.78115 10.8706 5.40186 9.95498 5.40186 9.0002C5.40186 8.04542 5.78115 7.12974 6.45628 6.45461C7.13141 5.77948 8.04708 5.4002 9.00186 5.4002C9.95664 5.4002 10.8723 5.77948 11.5474 6.45461C12.2226 7.12974 12.6019 8.04542 12.6019 9.0002Z" fill="#092C4C"/>
</svg>
