<svg width="16" height="14" viewBox="0 0 16 14" fill="none" xmlns="http://www.w3.org/2000/svg">
<path d="M9.25879 0C7.46858 0 5.75169 0.711159 4.48582 1.97703C3.21995 3.2429 2.50879 4.95979 2.50879 6.75H0.258789L3.17629 9.6675L3.22879 9.7725L6.25879 6.75H4.00879C4.00879 3.8475 6.35629 1.5 9.25879 1.5C12.1613 1.5 14.5088 3.8475 14.5088 6.75C14.5088 9.6525 12.1613 12 9.25879 12C7.81129 12 6.49879 11.4075 5.55379 10.455L4.48879 11.52C5.11375 12.1486 5.85704 12.6473 6.67574 12.9871C7.49445 13.327 8.37235 13.5013 9.25879 13.5C11.049 13.5 12.7659 12.7888 14.0318 11.523C15.2976 10.2571 16.0088 8.54021 16.0088 6.75C16.0088 4.95979 15.2976 3.2429 14.0318 1.97703C12.7659 0.711159 11.049 2.66762e-08 9.25879 0ZM8.50879 3.75V7.5L11.7188 9.405L12.2588 8.4975L9.63379 6.9375V3.75H8.50879Z" fill="black"/>
</svg>
