<svg width="18" height="18" viewBox="0 0 18 18" fill="none" xmlns="http://www.w3.org/2000/svg">
<path d="M10.7778 5V3C10.7778 2.46957 10.5905 1.96086 10.2571 1.58579C9.92368 1.21071 9.4715 1 9 1H2.77778C2.30628 1 1.8541 1.21071 1.5207 1.58579C1.1873 1.96086 1 2.46957 1 3V15C1 15.5304 1.1873 16.0391 1.5207 16.4142C1.8541 16.7893 2.30628 17 2.77778 17H9C9.4715 17 9.92368 16.7893 10.2571 16.4142C10.5905 16.0391 10.7778 15.5304 10.7778 15V13" stroke="#092C4C" stroke-width="1.75" stroke-linecap="round" stroke-linejoin="round"/>
<path d="M6.3335 9H17.0002M17.0002 9L14.3335 6M17.0002 9L14.3335 12" stroke="#092C4C" stroke-width="1.75" stroke-linecap="round" stroke-linejoin="round"/>
</svg>
