<svg width="18" height="18" viewBox="0 0 18 18" fill="none" xmlns="http://www.w3.org/2000/svg">
<path d="M12.675 2.25C12.8783 2.2499 13.0745 2.32486 13.2259 2.4605C13.3773 2.59614 13.4733 2.78292 13.4955 2.985L13.5 3.075V5.25H14.25C14.8239 5.24997 15.3761 5.46924 15.7937 5.86296C16.2113 6.25668 16.4626 6.79508 16.4963 7.368L16.5 7.5V12.75C16.5001 13.1284 16.3572 13.4929 16.0999 13.7704C15.8426 14.0479 15.4899 14.2179 15.1125 14.2463L15 14.25H13.5V15.675C13.5001 15.8783 13.4251 16.0745 13.2895 16.2259C13.1539 16.3773 12.9671 16.4733 12.765 16.4955L12.675 16.5H5.325C5.12171 16.5001 4.92553 16.4251 4.77411 16.2895C4.62269 16.1539 4.52668 15.9671 4.5045 15.765L4.5 15.675V14.25H3C2.62157 14.2501 2.25708 14.1072 1.97959 13.8499C1.7021 13.5926 1.53213 13.2399 1.50375 12.8625L1.5 12.75V7.5C1.49997 6.92609 1.71924 6.37386 2.11296 5.9563C2.50668 5.53874 3.04508 5.28742 3.618 5.25375L3.75 5.25H4.5V3.075C4.4999 2.87171 4.57486 2.67553 4.7105 2.52411C4.84614 2.37269 5.03292 2.27668 5.235 2.2545L5.325 2.25H12.675ZM12 12H6V15H12V12ZM14.25 6.75H3.75C3.5663 6.75002 3.389 6.81747 3.25172 6.93954C3.11444 7.06161 3.02674 7.22981 3.00525 7.41225L3 7.5V12.75H4.5V11.325C4.4999 11.1217 4.57486 10.9255 4.7105 10.7741C4.84614 10.6227 5.03292 10.5267 5.235 10.5045L5.325 10.5H12.675C12.8783 10.4999 13.0745 10.5749 13.2259 10.7105C13.3773 10.8461 13.4733 11.0329 13.4955 11.235L13.5 11.325V12.75H15V7.5C15 7.30109 14.921 7.11032 14.7803 6.96967C14.6397 6.82902 14.4489 6.75 14.25 6.75ZM12.75 7.5C12.9412 7.50021 13.125 7.57341 13.264 7.70464C13.403 7.83586 13.4867 8.01521 13.4979 8.20605C13.5091 8.39688 13.447 8.58478 13.3243 8.73137C13.2016 8.87796 13.0276 8.97217 12.8378 8.99475L12.75 9H11.25C11.0588 8.99979 10.875 8.92659 10.736 8.79536C10.597 8.66414 10.5133 8.48479 10.5021 8.29395C10.4909 8.10312 10.553 7.91522 10.6757 7.76863C10.7984 7.62204 10.9724 7.52783 11.1623 7.50525L11.25 7.5H12.75ZM12 3.75H6V5.25H12V3.75Z" fill="black"/>
</svg>
