<svg width="20" height="20" viewBox="0 0 20 20" fill="none" xmlns="http://www.w3.org/2000/svg">
<path d="M10 1C5.0293 1 1 5.0293 1 10C1 14.9707 5.0293 19 10 19C14.9707 19 19 14.9707 19 10C19 5.0293 14.9707 1 10 1Z" stroke="#092C4C" stroke-width="1.5" stroke-linecap="round" stroke-linejoin="round"/>
<path d="M3.04395 15.711C3.04395 15.711 5.05005 13.1496 10 13.1496C14.95 13.1496 16.957 15.711 16.957 15.711M10 9.99961C10.7161 9.99961 11.4029 9.71515 11.9092 9.2088C12.4156 8.70245 12.7 8.01569 12.7 7.29961C12.7 6.58352 12.4156 5.89677 11.9092 5.39042C11.4029 4.88407 10.7161 4.59961 10 4.59961C9.28396 4.59961 8.5972 4.88407 8.09086 5.39042C7.58451 5.89677 7.30005 6.58352 7.30005 7.29961C7.30005 8.01569 7.58451 8.70245 8.09086 9.2088C8.5972 9.71515 9.28396 9.99961 10 9.99961Z" stroke="#092C4C" stroke-width="1.5" stroke-linecap="round" stroke-linejoin="round"/>
</svg>
