<svg width="11" height="14" viewBox="0 0 11 14" fill="none" xmlns="http://www.w3.org/2000/svg">
<path d="M9.875 7.9375C9.875 8.8646 9.60008 9.77088 9.08502 10.5417C8.56995 11.3126 7.83786 11.9134 6.98133 12.2682C6.1248 12.623 5.1823 12.7158 4.27302 12.5349C3.36373 12.3541 2.5285 11.9076 1.87294 11.2521C1.21738 10.5965 0.770939 9.76127 0.590071 8.85198C0.409203 7.9427 0.502031 7.0002 0.856817 6.14367C1.2116 5.28714 1.81241 4.55505 2.58327 4.03999C3.35412 3.52492 4.2604 3.25 5.1875 3.25H10.5M10.5 3.25L8.625 1.375M10.5 3.25L8.625 5.125" stroke="#092C4C" stroke-linecap="round" stroke-linejoin="round"/>
</svg>
