<svg width="200" height="200" viewBox="0 0 200 200" fill="none" xmlns="http://www.w3.org/2000/svg">
<path d="M51.6667 194.333H145M5 34.3333V141C5 144.536 6.40476 147.928 8.90524 150.428C11.4057 152.929 14.7971 154.333 18.3333 154.333H178.333C181.87 154.333 185.261 152.929 187.761 150.428C190.262 147.928 191.667 144.536 191.667 141V34.3333C191.667 30.7971 190.262 27.4057 187.761 24.9052C185.261 22.4048 181.87 21 178.333 21H18.3333C14.7971 21 11.4057 22.4048 8.90524 24.9052C6.40476 27.4057 5 30.7971 5 34.3333Z" stroke="#092C4C" stroke-width="8"/>
<path d="M148.156 36.5625H52.8438C40.2102 36.5625 29.9688 44.9572 29.9688 55.3125V114.688C29.9688 125.043 40.2102 133.438 52.8438 133.438H148.156C160.79 133.438 171.031 125.043 171.031 114.688V55.3125C171.031 44.9572 160.79 36.5625 148.156 36.5625Z" stroke="#092C4C" stroke-width="5" stroke-linecap="round" stroke-linejoin="round"/>
<path d="M60.4688 86.5625V61.5625H90.9688M140.531 83.4375V108.438H110.031" stroke="#092C4C" stroke-width="5" stroke-linecap="round" stroke-linejoin="round"/>
</svg>
