<svg width="21" height="20" viewBox="0 0 21 20" fill="none" xmlns="http://www.w3.org/2000/svg">
<path d="M19.0008 12.875H13.0008C12.6494 12.875 12.3124 13.0146 12.0639 13.2631C11.8154 13.5116 11.6758 13.8486 11.6758 14.2V17.8C11.6758 18.1514 11.8154 18.4884 12.0639 18.7369C12.3124 18.9854 12.6494 19.125 13.0008 19.125H19.0008C19.3522 19.125 19.6892 18.9854 19.9377 18.7369C20.1862 18.4884 20.3258 18.1514 20.3258 17.8V14.2C20.3258 13.8486 20.1862 13.5116 19.9377 13.2631C19.6892 13.0146 19.3522 12.875 19.0008 12.875ZM13.1258 17.675V14.325H18.8758V17.675H13.1258Z" fill="#092C4C" stroke="#092C4C" stroke-width="0.25"/>
<path d="M5.80375 12.3276V10.6046H15.3938V12.3276V12.4526H15.5188H16.4787H16.6037V12.3276V9.51961V9.39461H16.4787H11.2038V7.59961V7.47461H11.0788H10.1188H9.99375V7.59961V9.39461H4.71875H4.59375V9.51961V12.3276V12.4526H4.71875H5.67875H5.80375V12.3276Z" fill="#092C4C" stroke="#092C4C" stroke-width="0.25"/>
<path d="M8.2 12.875H2.2C1.84859 12.875 1.51157 13.0146 1.26308 13.2631C1.0146 13.5116 0.875 13.8486 0.875 14.2V17.8C0.875 18.1514 1.0146 18.4884 1.26308 18.7369C1.51157 18.9854 1.84859 19.125 2.2 19.125H8.2C8.55141 19.125 8.88843 18.9854 9.13692 18.7369C9.3854 18.4884 9.525 18.1514 9.525 17.8V14.2C9.525 13.8486 9.3854 13.5116 9.13692 13.2631C8.88843 13.0146 8.55141 12.875 8.2 12.875ZM2.325 17.675V14.325H8.075V17.675H2.325Z" fill="#092C4C" stroke="#092C4C" stroke-width="0.25"/>
<path d="M7.60039 7.125H13.6004C13.9518 7.125 14.2888 6.9854 14.5373 6.73692C14.7858 6.48843 14.9254 6.15141 14.9254 5.8V2.2C14.9254 1.84859 14.7858 1.51157 14.5373 1.26308C14.2888 1.0146 13.9518 0.875 13.6004 0.875H7.60039C7.24898 0.875 6.91196 1.0146 6.66347 1.26308C6.41499 1.51157 6.27539 1.84859 6.27539 2.2V5.8C6.27539 6.15141 6.41499 6.48843 6.66347 6.73692C6.91196 6.9854 7.24898 7.125 7.60039 7.125ZM7.72539 2.325H13.4754V5.675H7.72539V2.325Z" fill="#092C4C" stroke="#092C4C" stroke-width="0.25"/>
</svg>
