<svg width="27" height="27" viewBox="0 0 27 27" fill="none" xmlns="http://www.w3.org/2000/svg">
<path d="M5.80769 13.5006V8.44316C5.82271 7.44904 6.03375 6.46765 6.42873 5.55523C6.8237 4.64281 7.39484 3.81728 8.10942 3.12596C8.824 2.43464 9.66798 1.8911 10.593 1.5265C11.518 1.1619 12.5059 0.983392 13.5 1.00121C14.4941 0.983392 15.482 1.1619 16.407 1.5265C17.332 1.8911 18.176 2.43464 18.8906 3.12596C19.6052 3.81728 20.1763 4.64281 20.5713 5.55523C20.9662 6.46765 21.1773 7.44904 21.1923 8.44316V13.5006M17.3462 23.5963C18.3662 23.5963 19.3445 23.1911 20.0658 22.4698C20.7871 21.7486 21.1923 20.7703 21.1923 19.7503V15.4236M17.3462 23.5963C17.3462 24.2338 17.0929 24.8452 16.6421 25.296C16.1913 25.7468 15.5798 26 14.9423 26H12.0577C11.4202 26 10.8087 25.7468 10.3579 25.296C9.90711 24.8452 9.65385 24.2338 9.65385 23.5963C9.65385 22.9588 9.90711 22.3474 10.3579 21.8966C10.8087 21.4458 11.4202 21.1925 12.0577 21.1925H14.9423C15.5798 21.1925 16.1913 21.4458 16.6421 21.8966C17.0929 22.3474 17.3462 22.9588 17.3462 23.5963ZM2.92308 10.6161H4.84615C5.10117 10.6161 5.34574 10.7174 5.52606 10.8977C5.70639 11.0781 5.80769 11.3226 5.80769 11.5776V17.3466C5.80769 17.6016 5.70639 17.8461 5.52606 18.0265C5.34574 18.2068 5.10117 18.3081 4.84615 18.3081H2.92308C2.41305 18.3081 1.9239 18.1055 1.56326 17.7448C1.20261 17.3842 1 16.8951 1 16.3851V12.5391C1 12.0291 1.20261 11.54 1.56326 11.1794C1.9239 10.8187 2.41305 10.6161 2.92308 10.6161ZM24.0769 18.3081H22.1538C21.8988 18.3081 21.6543 18.2068 21.4739 18.0265C21.2936 17.8461 21.1923 17.6016 21.1923 17.3466V11.5776C21.1923 11.3226 21.2936 11.0781 21.4739 10.8977C21.6543 10.7174 21.8988 10.6161 22.1538 10.6161H24.0769C24.587 10.6161 25.0761 10.8187 25.4367 11.1794C25.7974 11.54 26 12.0291 26 12.5391V16.3851C26 16.8951 25.7974 17.3842 25.4367 17.7448C25.0761 18.1055 24.587 18.3081 24.0769 18.3081Z" stroke="#092C4C" stroke-width="1.75" stroke-linecap="round" stroke-linejoin="round"/>
</svg>
