<svg width="14" height="17" viewBox="0 0 14 17" fill="none" xmlns="http://www.w3.org/2000/svg">
<path d="M13 2.75C13.1989 2.75 13.3897 2.82902 13.5303 2.96967C13.671 3.11032 13.75 3.30109 13.75 3.5C13.75 3.69891 13.671 3.88968 13.5303 4.03033C13.3897 4.17098 13.1989 4.25 13 4.25H12.25L12.2477 4.30325L11.548 14.1065C11.5211 14.4849 11.3517 14.8391 11.0741 15.0977C10.7965 15.3563 10.4311 15.5 10.0518 15.5H3.9475C3.5681 15.5 3.2028 15.3563 2.92516 15.0977C2.64753 14.8391 2.47819 14.4849 2.45125 14.1065L1.7515 4.304L1.75 4.25H1C0.801088 4.25 0.610322 4.17098 0.46967 4.03033C0.329018 3.88968 0.25 3.69891 0.25 3.5C0.25 3.30109 0.329018 3.11032 0.46967 2.96967C0.610322 2.82902 0.801088 2.75 1 2.75H13ZM10.7477 4.25H3.25225L3.94825 14H10.0518L10.7477 4.25ZM8.5 0.5C8.69891 0.5 8.88968 0.579018 9.03033 0.71967C9.17098 0.860322 9.25 1.05109 9.25 1.25C9.25 1.44891 9.17098 1.63968 9.03033 1.78033C8.88968 1.92098 8.69891 2 8.5 2H5.5C5.30109 2 5.11032 1.92098 4.96967 1.78033C4.82902 1.63968 4.75 1.44891 4.75 1.25C4.75 1.05109 4.82902 0.860322 4.96967 0.71967C5.11032 0.579018 5.30109 0.5 5.5 0.5H8.5Z" fill="black"/>
</svg>
