<svg width="17" height="17" viewBox="0 0 17 17" fill="none" xmlns="http://www.w3.org/2000/svg">
<path d="M1 16V14.3333C1 13.4493 1.35119 12.6014 1.97631 11.9763C2.60143 11.3512 3.44928 11 4.33333 11H7.66667C8.55072 11 9.39857 11.3512 10.0237 11.9763C10.6488 12.6014 11 13.4493 11 14.3333V16M11.8333 1.10833C12.5503 1.29192 13.1859 1.70892 13.6397 2.29359C14.0935 2.87827 14.3399 3.59736 14.3399 4.3375C14.3399 5.07764 14.0935 5.79673 13.6397 6.38141C13.1859 6.96608 12.5503 7.38308 11.8333 7.56667M16 16V14.3333C15.9958 13.5976 15.7483 12.884 15.2961 12.3037C14.8438 11.7233 14.2124 11.3089 13.5 11.125M2.66667 4.33333C2.66667 5.21739 3.01786 6.06523 3.64298 6.69036C4.2681 7.31548 5.11595 7.66667 6 7.66667C6.88405 7.66667 7.7319 7.31548 8.35702 6.69036C8.98214 6.06523 9.33333 5.21739 9.33333 4.33333C9.33333 3.44928 8.98214 2.60143 8.35702 1.97631C7.7319 1.35119 6.88405 1 6 1C5.11595 1 4.2681 1.35119 3.64298 1.97631C3.01786 2.60143 2.66667 3.44928 2.66667 4.33333Z" stroke="#092C4C" stroke-width="2" stroke-linecap="round" stroke-linejoin="round"/>
</svg>
