<svg width="20" height="20" viewBox="0 0 20 20" fill="none" xmlns="http://www.w3.org/2000/svg">
<path d="M10 1C5.0293 1 1 5.0293 1 10C1 14.9707 5.0293 19 10 19C14.9707 19 19 14.9707 19 10C19 5.0293 14.9707 1 10 1Z" stroke="#092C4C" stroke-width="1.5" stroke-linecap="round" stroke-linejoin="round"/>
<path d="M3.04395 15.7114C3.04395 15.7114 5.05005 13.15 10 13.15C14.95 13.15 16.957 15.7114 16.957 15.7114M10 9.99998C10.7161 9.99998 11.4029 9.71551 11.9092 9.20916C12.4156 8.70282 12.7 8.01606 12.7 7.29998C12.7 6.58389 12.4156 5.89714 11.9092 5.39079C11.4029 4.88444 10.7161 4.59998 10 4.59998C9.28396 4.59998 8.5972 4.88444 8.09086 5.39079C7.58451 5.89714 7.30005 6.58389 7.30005 7.29998C7.30005 8.01606 7.58451 8.70282 8.09086 9.20916C8.5972 9.71551 9.28396 9.99998 10 9.99998Z" stroke="#092C4C" stroke-width="1.5" stroke-linecap="round" stroke-linejoin="round"/>
</svg>
