<svg width="25" height="20" viewBox="0 0 25 20" fill="none" xmlns="http://www.w3.org/2000/svg">
<path d="M12.1028 2.24929C12.7936 2.24929 13.4807 2.64741 14.004 3.44366L21.2838 14.5259C22.3316 16.1173 21.5226 17.4196 19.4909 17.4196H4.71472C2.683 17.4196 1.874 16.1161 2.92188 14.5259L10.2016 3.44366C10.7249 2.64741 11.412 2.24929 12.1028 2.24929ZM12.1028 0C10.507 0 9.04661 0.832235 8.08985 2.28415L0.810116 13.3686C-0.157724 14.8408 -0.26362 16.4108 0.520749 17.676C1.30512 18.9412 2.83445 19.6689 4.71472 19.6689H19.4909C21.3712 19.6689 22.9018 18.9424 23.6849 17.6771C24.468 16.4119 24.3634 14.8419 23.3955 13.3698L16.1158 2.28752C15.159 0.832236 13.6986 0 12.1028 0Z" fill="#092C4C"/>
<path d="M12.1027 15.5076C12.9868 15.5076 13.7035 14.853 13.7035 14.0455C13.7035 13.2381 12.9868 12.5835 12.1027 12.5835C11.2186 12.5835 10.502 13.2381 10.502 14.0455C10.502 14.853 11.2186 15.5076 12.1027 15.5076Z" fill="#092C4C"/>
<path d="M13.9498 7.2978C13.9498 6.36435 13.1236 5.61084 12.1028 5.61084C11.8005 5.61089 11.5028 5.67876 11.2359 5.80848C10.9691 5.93821 10.7412 6.12582 10.5723 6.35483C10.4034 6.58383 10.2986 6.84723 10.2673 7.12186C10.2359 7.39649 10.2789 7.67395 10.3925 7.92985C11.0746 9.47736 12.1028 11.7964 12.1028 11.7964L13.8156 7.92985C13.8993 7.73529 13.9498 7.52161 13.9498 7.2978Z" fill="#092C4C"/>
</svg>
